<svg height="512" width="512" xmlns="http://www.w3.org/2000/svg"><path d="m189.3493042 120.4835815v58.8653259l-124.7594681 57.1039277 124.7594681 59.1477203v57.6854858l-189.3493042-89.8308105v-52.5425415zm128.8454285 53.2906647c0-15.0402374-13.82901-24.4914246-24.832489-16.9712982-11.0034485 7.5201111-11.0034485 26.4225006 0 33.9426117 11.003479 7.5201263 24.832489-1.9310608 24.832489-16.9713135zm-45.1188965 46.2111664c-37.3124695-20.4545593-37.3124847-71.8686066-.0000305-92.3231583 37.3125-20.454567 84.2062988 5.252449 84.2062988 46.1615677s-46.8937988 66.6161347-84.2062683 46.1615906zm199.8367615 119.9266663c0-15.0402527-13.82901-24.4914246-24.8324585-16.9713135-11.003479 7.5201416-11.0034485 26.4225159 0 33.942627 11.003479 7.520111 24.8324585-1.9310609 24.8324585-16.9713135zm-45.1188965 46.2111511c-37.3124695-20.4545593-37.3124695-71.8685913 0-92.3231506s84.2062988 5.2524719 84.2062988 46.1615905-46.8938293 66.6161194-84.2062988 46.1615601zm-114.6546326 7.1786804 194.40979-274.6038208h-66.4275208l-197.6501464 274.6038208z"/></svg>