<svg enable-background="new 0 0 512 512" height="512" viewBox="0 0 512 512" width="512" xmlns="http://www.w3.org/2000/svg"><path clip-rule="evenodd" d="m272.38 241.227c-88.585 8.209-179.856 27.131-271.88 33.099 13.981-14.314 42.671-12.472 68.562-16.547 45.478-7.161 102.645-12.002 153.669-18.918 16.464-2.229 37.938-11.129 49.649 2.366zm-87.475 33.098c-29.659 3.368-54.751 5.048-80.38 7.094-17.391 1.39-36.312-2.162-47.287 9.457 36.283 9.876 80.442-6.246 118.21-4.729 5.186-4.292 62.856 5.065 87.474-16.547-20.18-12.799-49.156 1.448-78.017 4.725zm264.785 33.102c-23.213 20.464-34.832 35.88-68.562 28.369-10.837-10.638-9.539-29.01-9.456-30.735.532-10.929 7.672-24.59 7.09-35.46-5.215 18.443-35.589 24.27-35.46 40.188-23.981 16.21-43.847 36.537-87.474 33.098-23.075-28.606 11.781-76.209 30.736-99.293 8.421-10.263 16.871-21.088 26.003-30.735 20.007-21.134 22.955-28.29 49.648-40.192 40.242-17.931 56.419 29.834 30.731 54.377-9.855 2.517-10.425.615-21.274 0 9.718-9.598 7.535-28.402 11.818-37.825-.262-4.467-7.814-1.639-7.091-7.095-38.429 15.632-63.222 44.072-85.107 78.022-9.22 14.297-19.342 28.498-21.279 52.006.262 4.467 7.813 1.643 7.094 7.095 2.616.075 5.099.017 7.485-.142v-.054h.861c38.309-2.974 47.856-34.711 69.668-54.182-14.884-6.691-30.282 14.098-44.917 2.366 12.352-23.408 47.245-15.574 78.015-23.642 2.444 7.719 5.992 5.012 0 11.818 32.116-23.254 50.243-92.9 118.21-80.38 20.248 53.2-24.543 104.005-56.739 132.396zm40.188-113.483c-45.743 9.598-87.886 58.989-101.658 115.844 30.585 9.656 50.222-25.013 73.289-37.825 13.477-20.319 38.679-49.088 28.369-78.019z" fill-rule="evenodd"/></svg>